HIERARCHY
ROOT Hips
{
  OFFSET 50.8437 84.4586 -0.717054
  CHANNELS 6 Xposition Yposition Zposition Zrotation Xrotation Yrotation
  JOINT spine
  {
    OFFSET 0 5.95438 0.342407
    CHANNELS 3 Zrotation Xrotation Yrotation
    JOINT spine1
    {
      OFFSET 0 8.85602 0
      CHANNELS 3 Zrotation Xrotation Yrotation
      JOINT spine2
      {
        OFFSET 0 8.48567 0
        CHANNELS 3 Zrotation Xrotation Yrotation
        JOINT Neck
        {
          OFFSET 0 21.7863 1.0387
          CHANNELS 3 Zrotation Xrotation Yrotation
          JOINT Head
          {
            OFFSET 0 6.5822 0
            CHANNELS 3 Zrotation Xrotation Yrotation
            End Site
            {
              OFFSET 0 15.9326 -5.25436
            }
          }
        }
        JOINT RightShoulder
        {
          OFFSET -3.57307 9.16386 -0.497525
          CHANNELS 3 Zrotation Xrotation Yrotation
          JOINT RightArm
          {
            OFFSET 0 12.0192 0
            CHANNELS 3 Zrotation Xrotation Yrotation
            JOINT RightArmRoll
            {
              OFFSET 0 6.06755 0
              CHANNELS 3 Zrotation Xrotation Yrotation
              JOINT RightForeArm
              {
                OFFSET 0 17.6726 0
                CHANNELS 3 Zrotation Xrotation Yrotation
                JOINT RightForeArmRoll
                {
                  OFFSET 0 6.80872 0
                  CHANNELS 3 Zrotation Xrotation Yrotation
                  JOINT RightHand
                  {
                    OFFSET 0 13.6636 0
                    CHANNELS 3 Zrotation Xrotation Yrotation
                    End Site
                    {
                      OFFSET 0 0 0
                    }
                  }
                }
              }
            }
          }
        }
        JOINT LeftShoulder
        {
          OFFSET 3.57307 9.16386 -0.497525
          CHANNELS 3 Zrotation Xrotation Yrotation
          JOINT LeftArm
          {
            OFFSET 0 12.0192 0
            CHANNELS 3 Zrotation Xrotation Yrotation
            JOINT LeftArmRoll
            {
              OFFSET 0 6.06754 0
              CHANNELS 3 Zrotation Xrotation Yrotation
              JOINT LeftForeArm
              {
                OFFSET 0 17.6726 0
                CHANNELS 3 Zrotation Xrotation Yrotation
                JOINT LeftForeArmRoll
                {
                  OFFSET 0 6.80872 0
                  CHANNELS 3 Zrotation Xrotation Yrotation
                  JOINT LeftHand
                  {
                    OFFSET 0 13.6636 0
                    CHANNELS 3 Zrotation Xrotation Yrotation
                    End Site
                    {
                      OFFSET 0 0 0
                    }
                  }
                }
              }
            }
          }
        }
      }
    }
  }
  JOINT RightUpLeg
  {
    OFFSET -5.27774 -0.967797 -0.811858
    CHANNELS 3 Zrotation Xrotation Yrotation
    JOINT RightUpLegRoll
    {
      OFFSET 0 16.0214 0
      CHANNELS 3 Zrotation Xrotation Yrotation
      JOINT RightLeg
      {
        OFFSET 0 -19.8401 0
        CHANNELS 3 Zrotation Xrotation Yrotation
        JOINT RightLegRoll
        {
          OFFSET 0 19.905 0
          CHANNELS 3 Zrotation Xrotation Yrotation
          JOINT RightFoot
          {
            OFFSET 0 16.5675 0
            CHANNELS 3 Zrotation Xrotation Yrotation
            JOINT RightToeBase
            {
              OFFSET 0 13.8496 0
              CHANNELS 3 Zrotation Xrotation Yrotation
              End Site
              {
                OFFSET 0.00587034 6.70727 -0.773117
              }
            }
          }
        }
      }
    }
  }
  JOINT LeftUpLeg
  {
    OFFSET 5.27774 -0.967797 -0.811858
    CHANNELS 3 Zrotation Xrotation Yrotation
    JOINT LeftUpLegRoll
    {
      OFFSET 0 16.0215 0
      CHANNELS 3 Zrotation Xrotation Yrotation
      JOINT LeftLeg
      {
        OFFSET 0 19.84 0
        CHANNELS 3 Zrotation Xrotation Yrotation
        JOINT LeftLegRoll
        {
          OFFSET 0 20.089 0
          CHANNELS 3 Zrotation Xrotation Yrotation
          JOINT LeftFoot
          {
            OFFSET 0 16.3835 0
            CHANNELS 3 Zrotation Xrotation Yrotation
            JOINT LeftToeBase
            {
              OFFSET 0 13.8496 0
              CHANNELS 3 Zrotation Xrotation Yrotation
              End Site
              {
                OFFSET -0.0263083 6.70728 -0.773117
              }
            }
          }
        }
      }
    }
  }
}
MOTION
Frames: 9
Frame Time: 0.00208333
47.6999 78.7014 -6.12527 -0.927209 3.99703 4.89036 0.119356 -1.54117 0.0601056 0.239655 0.920568 0.115412 0.238418 2.56564 0.111479 -33.6049 -31.3973 -16.0463 32.0074 19.296 -16.511 20.7436 -17.8893 -16.1287 -6.63414 15.8298 84.0906 -5.56597e-015 -4.77083e-015 2.8625e-014 -3.84615 17.9028 -1.5172 -5.20816e-006 -4.41389e-006 -2.99967 8.0301 -4.95136 0.697622 -43.0389 -18.2122 13.2541 17.4398 8.04385 -95.3639 -3.97569e-016 -4.77083e-015 -9.54166e-015 4.45535 40.8437 0.656748 3.47883e-006 7.05246e-007 3 -8.03011 -4.95138 -0.697633 161.556 15.6724 6.81059 180 7.01461e-015 178.599 -173.092 27.7003 177.177 8.91497e-007 -2.57151e-006 1.05773 -21.4941 70.743 22.1334 8.14628 28.2821 -0.178179 -159.161 18.0684 -7.11091 4.54188e-006 -4.6773e-006 -1.58144 5.82957 -28.282 2.0905 -3.98694e-006 -1.13327e-006 -0.67019 19.9038 68.2392 -19.7212 -8.13448 28.4851 -0.0228027 
47.7346 78.9823 -6.13159 -0.970789 4.01254 4.85706 0.117318 -1.58598 0.0608172 0.23564 0.830956 0.116192 0.234386 2.47603 0.112295 -33.2996 -31.293 -15.8456 31.8508 19.4883 -16.4356 21.3242 -17.6747 -15.745 -6.97016 16.0462 84.0027 -7.95139e-015 -1.07344e-014 2.54444e-014 -3.82843 16.6141 -1.55638 -5.20816e-006 -4.41389e-006 -2.99999 8.0301 -4.95136 0.697622 -43.3534 -18.0372 13.0701 16.5834 8.42955 -94.9251 -2.78299e-015 -2.98177e-015 -1.27222e-014 4.46785 41.1496 0.641148 3.47883e-006 7.05246e-007 3 -8.03011 -4.95138 -0.697633 161.677 15.375 6.81097 180 7.01462e-015 178.601 -173.346 27.0348 177.299 8.91502e-007 -2.57141e-006 0.930696 -21.1316 70.2565 21.6539 8.14583 28.2918 -0.167299 -159.119 17.6369 -7.22442 4.54188e-006 -4.6773e-006 -1.57962 5.55027 -27.4519 1.95214 -3.98695e-006 -1.13323e-006 -0.550345 19.639 67.789 -19.3609 -8.13671 28.4521 0.0134948 
47.6988 79.272 -6.08368 -0.997673 4.02498 4.82998 0.112966 -1.62947 0.0612456 0.226994 0.743979 0.116392 0.225728 2.38905 0.112597 -33.0301 -31.167 -15.6491 31.7309 19.6529 -16.3621 21.8864 -17.4552 -15.3685 -7.37935 16.2308 83.957 -5.56597e-015 3.18055e-015 2.22639e-014 -3.81088 15.3013 -1.59473 -5.20816e-006 -4.41389e-006 -3.00044 8.0301 -4.95136 0.697622 -43.6999 -17.8482 12.8735 15.6914 8.81723 -94.4643 3.97569e-016 -3.97569e-016 3.18055e-015 4.48093 41.4671 0.624732 3.47883e-006 7.05246e-007 3 -8.03011 -4.95138 -0.697633 161.788 15.0898 6.81291 180 7.01462e-015 178.601 -173.572 26.4054 177.407 8.91507e-007 -2.57133e-006 0.821025 -20.8248 69.8236 21.2455 8.14856 28.2498 -0.214907 -159.118 17.221 -7.29583 4.54188e-006 -4.6773e-006 -1.57869 5.30947 -26.6588 1.83141 -3.98695e-006 -1.1332e-006 -0.446462 19.4109 67.3945 -19.0545 -8.14177 28.3763 0.098056 
47.6158 79.584 -6.02637 -1.01415 4.04177 4.80884 0.10719 -1.67496 0.0614452 0.215499 0.652997 0.115954 0.214227 2.29807 0.112293 -32.787 -31.0045 -15.4455 31.6421 19.7866 -16.2841 22.4372 -17.2195 -14.9835 -7.92002 16.3821 83.9676 -7.95139e-016 -1.19271e-015 6.36111e-015 -3.79215 13.8822 -1.63462 -5.20816e-006 -4.41389e-006 -3.00104 8.0301 -4.95136 0.697622 -44.0815 -17.6386 12.6579 14.7454 9.20308 -93.9561 -5.56597e-015 2.18663e-015 -2.22639e-014 4.49631 41.8348 0.605474 3.47883e-006 7.05246e-007 3 -8.03011 -4.95138 -0.697633 161.892 14.8167 6.81666 180 7.01461e-015 178.6 -173.78 25.7961 177.505 8.9151e-007 -2.57127e-006 0.722721 -20.5454 69.4266 20.8802 8.15402 28.1587 -0.317469 -159.144 16.818 -7.33645 4.54188e-006 -4.6773e-006 -1.57869 5.0965 -25.8814 1.72419 -3.98695e-006 -1.13317e-006 -0.354032 19.2047 67.0361 -18.7817 -8.14925 28.257 0.231137 
47.6904 79.8854 -6.04325 -1.02106 4.06147 4.79323 0.100093 -1.72184 0.0614422 0.201358 0.559234 0.114972 0.200086 2.20431 0.111479 -32.569 -30.8107 -15.2374 31.5816 19.8929 -16.2027 22.9754 -16.9701 -14.593 -8.56009 16.5056 84.0226 -4.77083e-015 3.57812e-015 9.54166e-015 -3.77312 12.3875 -1.6756 -5.20816e-006 -4.41389e-006 -3.00177 8.0301 -4.95136 0.697622 -44.4929 -17.4107 12.4261 13.7497 9.58169 -93.4012 -5.56597e-015 8.74653e-015 -3.81667e-014 4.51366 42.2419 0.583878 3.47883e-006 7.05246e-007 3 -8.03011 -4.95138 -0.697633 161.991 14.5536 6.82161 180 7.01461e-015 178.597 -173.97 25.2063 177.593 8.91513e-007 -2.57123e-006 0.634901 -20.289 69.0632 20.5524 8.1613 28.025 -0.467665 -159.194 16.4264 -7.34901 4.54188e-006 -4.6773e-006 -1.57949 4.9088 -25.1192 1.6291 -3.98695e-006 -1.13315e-006 -0.27212 19.0167 66.7112 -18.5382 -8.15816 28.1001 0.405967 
47.6163 80.1929 -5.97555 -1.01923 4.08259 4.78276 0.0917792 -1.76949 0.0612628 0.184776 0.463915 0.113542 0.183509 2.10899 0.110247 -32.3744 -30.5913 -15.0269 31.5462 19.9755 -16.1191 23.5002 -16.7097 -14.1998 -9.26734 16.6063 84.1095 1.59028e-015 1.55052e-014 -3.18055e-015 -3.75451 10.8478 -1.71718 -5.20816e-006 -4.41389e-006 -3.00261 8.0301 -4.95136 0.697622 -44.9286 -17.1672 12.1809 12.7091 9.94807 -92.8011 -1.59028e-015 1.19271e-015 -6.36111e-015 4.53263 42.6774 0.560458 3.47883e-006 7.05246e-007 3 -8.03011 -4.95138 -0.697633 162.086 14.2989 6.82716 180 7.0146e-015 178.594 -174.146 24.6349 177.673 8.91515e-007 -2.5712e-006 0.556683 -20.0522 68.7313 20.2572 8.16938 27.8546 -0.65812 -159.267 16.0444 -7.33614 4.54188e-006 -4.6773e-006 -1.58097 4.74389 -24.3718 1.54478 -3.98695e-006 -1.13314e-006 -0.199785 18.8442 66.4173 -18.3204 -8.16745 27.911 0.615754 
47.7103 80.5009 -6.00668 -1.0095 4.10366 4.77703 0.0823504 -1.81732 0.0609331 0.165958 0.368264 0.111758 0.1647 2.01334 0.10869 -32.2015 -30.3516 -14.8165 31.5328 20.038 -16.0344 24.0106 -16.441 -13.8067 -10.0094 16.6898 84.2154 -9.54166e-015 3.97569e-015 2.54444e-014 -3.73692 9.2935 -1.75885 -5.20816e-006 -4.41389e-006 -3.00353 8.0301 -4.95136 0.697622 -45.3833 -16.9103 11.925 11.6283 10.2977 -92.1577 -1.59028e-015 2.38542e-015 -1.59028e-014 4.55282 43.1302 0.535753 3.47883e-006 7.05246e-007 3 -8.03011 -4.95138 -0.697633 162.178 14.0506 6.83273 180 7.01459e-015 178.59 -174.307 24.081 177.745 8.91516e-007 -2.57119e-006 0.487184 -19.8322 68.4284 19.9907 8.17721 27.6537 -0.881465 -159.36 15.6704 -7.3005 4.54188e-006 -4.6773e-006 -1.58303 4.59941 -23.6389 1.46996 -3.98695e-006 -1.13313e-006 -0.136091 18.6848 66.1518 -18.125 -8.17614 27.6955 0.853739 
47.6283 80.8184 -5.9114 -0.99269 4.12323 4.77564 0.0719103 -1.86469 0.0604792 0.145109 0.273505 0.109713 0.143864 1.91858 0.106902 -32.0486 -30.0972 -14.6083 31.5385 20.0843 -15.9498 24.506 -16.1668 -13.4165 -10.7537 16.7614 84.3275 -4.77083e-015 1.23246e-014 9.54166e-015 -3.72077 7.75524 -1.80001 -5.20816e-006 -4.41389e-006 -3.00451 8.0301 -4.95136 0.697622 -45.8518 -16.6427 11.6612 10.5124 10.6267 -91.4736 7.95139e-016 1.82882e-014 -0 4.5738 43.5893 0.510323 3.47883e-006 7.05246e-007 3 -8.03011 -4.95138 -0.697633 162.268 13.8069 6.83771 180 7.01457e-015 178.586 -174.456 23.5437 177.811 8.91516e-007 -2.57119e-006 0.425522 -19.6268 68.1523 19.7494 8.18388 27.4286 -1.13038 -159.471 15.3028 -7.24468 4.54188e-006 -4.6773e-006 -1.58553 4.47307 -22.9199 1.40342 -3.98695e-006 -1.13313e-006 -0.0800993 18.5364 65.9122 -17.9494 -8.18335 27.4592 1.11322 
47.7043 81.1261 -5.92825 -0.969647 4.13981 4.77819 0.0605621 -1.91101 0.0599273 0.122437 0.180863 0.107502 0.121206 1.82594 0.104977 -31.9135 -29.8336 -14.4044 31.56 20.1178 -15.8666 24.9857 -15.8899 -13.0318 -11.468 16.8271 84.433 -1.43125e-014 -1.11319e-014 2.8625e-014 -3.70632 6.26355 -1.83999 -5.20816e-006 -4.41389e-006 -3.00551 8.0301 -4.95136 0.697622 -46.329 -16.3669 11.3923 9.36655 10.9319 -90.7518 -7.95139e-016 -1.03368e-014 -3.18055e-015 4.59509 44.0438 0.484762 3.47883e-006 7.05246e-007 3 -8.03011 -4.95138 -0.697633 162.357 13.5659 6.84154 180 7.01456e-015 178.581 -174.593 23.022 177.871 8.91515e-007 -2.5712e-006 0.370815 -19.4345 67.9007 19.5303 8.18859 27.1854 -1.39762 -159.6 14.9401 -7.17127 4.54188e-006 -4.6773e-006 -1.58837 4.36267 -22.2144 1.34395 -3.98695e-006 -1.13314e-006 -0.0308713 18.3974 65.696 -17.7912 -8.18839 27.2078 1.38758 
